<?xml version="1.0" encoding="UTF-8" standalone="no"?>
<!-- Created with Inkscape (http://www.inkscape.org/) -->

<svg
   xmlns:dc="http://purl.org/dc/elements/1.1/"
   xmlns:cc="http://creativecommons.org/ns#"
   xmlns:rdf="http://www.w3.org/1999/02/22-rdf-syntax-ns#"
   xmlns:svg="http://www.w3.org/2000/svg"
   xmlns="http://www.w3.org/2000/svg"
   xmlns:xlink="http://www.w3.org/1999/xlink"
   xmlns:sodipodi="http://sodipodi.sourceforge.net/DTD/sodipodi-0.dtd"
   xmlns:inkscape="http://www.inkscape.org/namespaces/inkscape"
   width="1280"
   height="1024"
   id="svg2"
   version="1.1"
   inkscape:version="0.47 r22583"
   sodipodi:docname="BlenderCave_GUI_draft.svg"
   inkscape:export-filename="/home/jorge/BlenderCave_GUI/BlenderCave_GUI_draft.png"
   inkscape:export-xdpi="109.47"
   inkscape:export-ydpi="109.47">
  <defs
     id="defs4">
    <linearGradient
       id="linearGradient3722">
      <stop
         style="stop-color:#6f6f6f;stop-opacity:1;"
         offset="0"
         id="stop3724" />
      <stop
         style="stop-color:#000000;stop-opacity:1;"
         offset="1"
         id="stop3726" />
    </linearGradient>
    <inkscape:perspective
       sodipodi:type="inkscape:persp3d"
       inkscape:vp_x="0 : 526.18109 : 1"
       inkscape:vp_y="0 : 1000 : 0"
       inkscape:vp_z="744.09448 : 526.18109 : 1"
       inkscape:persp3d-origin="372.04724 : 350.78739 : 1"
       id="perspective10" />
    <inkscape:perspective
       id="perspective2911"
       inkscape:persp3d-origin="0.5 : 0.33333333 : 1"
       inkscape:vp_z="1 : 0.5 : 1"
       inkscape:vp_y="0 : 1000 : 0"
       inkscape:vp_x="0 : 0.5 : 1"
       sodipodi:type="inkscape:persp3d" />
    <inkscape:perspective
       id="perspective2927"
       inkscape:persp3d-origin="0.5 : 0.33333333 : 1"
       inkscape:vp_z="1 : 0.5 : 1"
       inkscape:vp_y="0 : 1000 : 0"
       inkscape:vp_x="0 : 0.5 : 1"
       sodipodi:type="inkscape:persp3d" />
    <radialGradient
       inkscape:collect="always"
       xlink:href="#linearGradient3722"
       id="radialGradient3728"
       cx="621.75616"
       cy="492.1557"
       fx="621.75616"
       fy="492.1557"
       r="12.8801"
       gradientUnits="userSpaceOnUse"
       gradientTransform="matrix(1.4596669,-5.6001006e-7,5.0266228e-7,1.3101902,174.86578,-364.71597)" />
    <inkscape:perspective
       id="perspective3772"
       inkscape:persp3d-origin="0.5 : 0.33333333 : 1"
       inkscape:vp_z="1 : 0.5 : 1"
       inkscape:vp_y="0 : 1000 : 0"
       inkscape:vp_x="0 : 0.5 : 1"
       sodipodi:type="inkscape:persp3d" />
    <inkscape:perspective
       id="perspective3878"
       inkscape:persp3d-origin="0.5 : 0.33333333 : 1"
       inkscape:vp_z="1 : 0.5 : 1"
       inkscape:vp_y="0 : 1000 : 0"
       inkscape:vp_x="0 : 0.5 : 1"
       sodipodi:type="inkscape:persp3d" />
    <inkscape:perspective
       id="perspective3994"
       inkscape:persp3d-origin="0.5 : 0.33333333 : 1"
       inkscape:vp_z="1 : 0.5 : 1"
       inkscape:vp_y="0 : 1000 : 0"
       inkscape:vp_x="0 : 0.5 : 1"
       sodipodi:type="inkscape:persp3d" />
    <inkscape:perspective
       id="perspective4016"
       inkscape:persp3d-origin="0.5 : 0.33333333 : 1"
       inkscape:vp_z="1 : 0.5 : 1"
       inkscape:vp_y="0 : 1000 : 0"
       inkscape:vp_x="0 : 0.5 : 1"
       sodipodi:type="inkscape:persp3d" />
  </defs>
  <sodipodi:namedview
     id="base"
     pagecolor="#ffffff"
     bordercolor="#666666"
     borderopacity="1.0"
     inkscape:pageopacity="1"
     inkscape:pageshadow="2"
     inkscape:zoom="1.0280952"
     inkscape:cx="861.30893"
     inkscape:cy="481.6848"
     inkscape:document-units="px"
     inkscape:current-layer="layer1"
     showgrid="false"
     inkscape:window-width="1280"
     inkscape:window-height="997"
     inkscape:window-x="0"
     inkscape:window-y="0"
     inkscape:window-maximized="1" />
  <metadata
     id="metadata7">
    <rdf:RDF>
      <cc:Work
         rdf:about="">
        <dc:format>image/svg+xml</dc:format>
        <dc:type
           rdf:resource="http://purl.org/dc/dcmitype/StillImage" />
        <dc:title></dc:title>
      </cc:Work>
    </rdf:RDF>
  </metadata>
  <g
     inkscape:label="Background"
     inkscape:groupmode="layer"
     id="layer1"
     transform="translate(0,-28.362182)">
    <image
       y="31.970825"
       x="4.5108032"
       id="image2913"
       height="1016.7827"
       width="1270.9784"
       xlink:href="file:///home/jorge/BlenderCave_GUI/Blender_GUI.png" />
  </g>
  <g
     inkscape:groupmode="layer"
     id="layer2"
     inkscape:label="GUI">
    <rect
       style="fill:#727272;fill-opacity:1;stroke:#7d7d7d;stroke-width:3.02135801;stroke-miterlimit:4;stroke-opacity:1;stroke-dasharray:none;stroke-dashoffset:0"
       id="rect2917"
       width="216.65889"
       height="660.19763"
       x="1040.2968"
       y="258.51199" />
    <path
       sodipodi:type="star"
       style="fill:#000000;fill-opacity:1;stroke:none"
       id="path2942"
       sodipodi:sides="3"
       sodipodi:cx="583.2403"
       sodipodi:cy="464.14435"
       sodipodi:r1="17.935196"
       sodipodi:r2="8.967598"
       sodipodi:arg1="1.5707963"
       sodipodi:arg2="2.6179939"
       inkscape:flatsided="true"
       inkscape:rounded="0"
       inkscape:randomized="0"
       d="m 583.2403,482.07954 -15.53234,-26.90279 31.06467,0 -15.53233,26.90279 z"
       transform="matrix(0.47707125,0,0,0.47707125,779.57009,47.17437)" />
    <text
       xml:space="preserve"
       style="font-size:16.06048775px;font-style:normal;font-weight:normal;line-height:125%;letter-spacing:0px;word-spacing:0px;fill:#000000;fill-opacity:1;stroke:none;font-family:Bitstream Vera Sans"
       x="1099.0182"
       y="276.74396"
       id="text3716"
       sodipodi:linespacing="125%"><tspan
         sodipodi:role="line"
         id="tspan3718"
         x="1099.0182"
         y="276.74396">BlenderCave</tspan></text>
    <rect
       style="fill:url(#radialGradient3728);fill-opacity:1;stroke:#8c8c8c;stroke-width:0.65509528;stroke-opacity:1"
       id="rect3720"
       width="16.220291"
       height="16.220291"
       x="1074.3127"
       y="263.55341" />
    <g
       style="font-size:18px;font-style:normal;font-weight:normal;line-height:125%;letter-spacing:0px;word-spacing:0px;fill:#ffffff;fill-opacity:1;stroke:none;font-family:Bitstream Vera Sans"
       id="text3730"
       transform="matrix(1.2194709,0,0,1.2958968,262.36744,-425.60946)">
      <path
         d="m 666.10572,536.49674 2.36462,0 4.24417,4.42408 4.24417,-11.39864 2.36462,0 -5.093,13.58136 -3.03156,0 -5.09302,-6.6068"
         id="path3735"
         sodipodi:nodetypes="cccccccc" />
    </g>
    <rect
       style="fill:#aeaeae;fill-opacity:1;stroke:#000000;stroke-width:0.73215574;stroke-miterlimit:4;stroke-opacity:1;stroke-dasharray:none;stroke-dashoffset:0"
       id="rect3741"
       width="193.70421"
       height="21.364433"
       x="1055.194"
       y="319.0412"
       ry="10.982336"
       rx="10.982336" />
    <text
       xml:space="preserve"
       style="font-size:12px;font-style:normal;font-weight:normal;line-height:125%;letter-spacing:0px;word-spacing:0px;fill:#000000;fill-opacity:1;stroke:none;font-family:Bitstream Vera Sans"
       x="1100.9917"
       y="334.7594"
       id="text3737"
       sodipodi:linespacing="125%"><tspan
         sodipodi:role="line"
         id="tspan3739"
         x="1100.9917"
         y="334.7594">Mcast Port: 3333</tspan></text>
    <path
       sodipodi:type="star"
       style="fill:#505050;fill-opacity:1;stroke:none"
       id="path3743"
       sodipodi:sides="3"
       sodipodi:cx="755.76654"
       sodipodi:cy="551.28113"
       sodipodi:r1="5.8360353"
       sodipodi:r2="2.9180176"
       sodipodi:arg1="0"
       sodipodi:arg2="1.0471976"
       inkscape:flatsided="true"
       inkscape:rounded="0"
       inkscape:randomized="0"
       d="m 761.60258,551.28113 -8.75406,5.05415 0,-10.10831 8.75406,5.05416 z"
       transform="matrix(0.98650796,0,0,0.98650796,488.60509,-214.1198)" />
    <path
       transform="matrix(-0.98650796,0,0,0.98650796,1814.9168,-214.1198)"
       d="m 761.60258,551.28113 -8.75406,5.05415 0,-10.10831 8.75406,5.05416 z"
       inkscape:randomized="0"
       inkscape:rounded="0"
       inkscape:flatsided="true"
       sodipodi:arg2="1.0471976"
       sodipodi:arg1="0"
       sodipodi:r2="2.9180176"
       sodipodi:r1="5.8360353"
       sodipodi:cy="551.28113"
       sodipodi:cx="755.76654"
       sodipodi:sides="3"
       id="path3745"
       style="fill:#505050;fill-opacity:1;stroke:none"
       sodipodi:type="star" />
    <rect
       rx="10.982336"
       ry="10.982336"
       y="288.76971"
       x="1055.194"
       height="21.364433"
       width="193.70421"
       id="rect3749"
       style="fill:#aeaeae;fill-opacity:1;stroke:#000000;stroke-width:0.73215574;stroke-miterlimit:4;stroke-opacity:1;stroke-dasharray:none;stroke-dashoffset:0" />
    <text
       sodipodi:linespacing="125%"
       id="text3751"
       y="304.48785"
       x="1085.9917"
       style="font-size:12px;font-style:normal;font-weight:normal;line-height:125%;letter-spacing:0px;word-spacing:0px;fill:#000000;fill-opacity:1;stroke:none;font-family:Bitstream Vera Sans"
       xml:space="preserve"><tspan
         y="304.48785"
         x="1085.9917"
         id="tspan3753"
         sodipodi:role="line">Master IP: 192.168.1.1</tspan></text>
    <path
       transform="matrix(0.98650796,0,0,0.98650796,488.60509,-244.39131)"
       d="m 761.60258,551.28113 -8.75406,5.05415 0,-10.10831 8.75406,5.05416 z"
       inkscape:randomized="0"
       inkscape:rounded="0"
       inkscape:flatsided="true"
       sodipodi:arg2="1.0471976"
       sodipodi:arg1="0"
       sodipodi:r2="2.9180176"
       sodipodi:r1="5.8360353"
       sodipodi:cy="551.28113"
       sodipodi:cx="755.76654"
       sodipodi:sides="3"
       id="path3755"
       style="fill:#505050;fill-opacity:1;stroke:none"
       sodipodi:type="star" />
    <path
       sodipodi:type="star"
       style="fill:#505050;fill-opacity:1;stroke:none"
       id="path3757"
       sodipodi:sides="3"
       sodipodi:cx="755.76654"
       sodipodi:cy="551.28113"
       sodipodi:r1="5.8360353"
       sodipodi:r2="2.9180176"
       sodipodi:arg1="0"
       sodipodi:arg2="1.0471976"
       inkscape:flatsided="true"
       inkscape:rounded="0"
       inkscape:randomized="0"
       d="m 761.60258,551.28113 -8.75406,5.05415 0,-10.10831 8.75406,5.05416 z"
       transform="matrix(-0.98650796,0,0,0.98650796,1814.9168,-244.39131)" />
    <path
       style="fill:#7c7c7c;fill-opacity:1;stroke:#000000;stroke-width:1;stroke-miterlimit:4;stroke-opacity:1;stroke-dashoffset:0"
       d="m 1065.295,558.73969 172.5892,0 c 5.54,0 10,4.46 10,10 l 0,95.8138 c 0,5.54 -4.46,10 -10,10 l -172.5892,0 c -5.54,0 -10,-4.46 -10,-10 l 0,-95.8138 c 0,-5.54 4.46,-10 10,-10 z"
       id="rect3762"
       sodipodi:nodetypes="ccccccccc" />
    <path
       sodipodi:type="star"
       style="fill:#ffffff;fill-opacity:1;stroke:none"
       id="path2942-7"
       sodipodi:sides="3"
       sodipodi:cx="583.2403"
       sodipodi:cy="464.14435"
       sodipodi:r1="17.935196"
       sodipodi:r2="8.967598"
       sodipodi:arg1="1.5707963"
       sodipodi:arg2="2.6179939"
       inkscape:flatsided="true"
       inkscape:rounded="0"
       inkscape:randomized="0"
       d="m 583.2403,482.07954 -15.53234,-26.90279 31.06467,0 -15.53233,26.90279 z"
       transform="matrix(0.3518264,0,0,0.3518264,865.76777,405.68734)" />
    <text
       xml:space="preserve"
       style="font-size:16px;font-style:normal;font-weight:normal;line-height:125%;letter-spacing:0px;word-spacing:0px;fill:#e3dedb;fill-opacity:1;stroke:none;font-family:Bitstream Vera Sans"
       x="1084.3386"
       y="575.38446"
       id="text3786"
       sodipodi:linespacing="125%"><tspan
         sodipodi:role="line"
         id="tspan3788"
         x="1084.3386"
         y="575.38446">screen 1</tspan></text>
    <path
       style="fill:#e3dedb;fill-opacity:1;stroke:#000000;stroke-width:0.95850867;stroke-miterlimit:4;stroke-opacity:1;stroke-dashoffset:0"
       d="m 1113.9202,586.00845 121.284,0 c 2.2167,0 4.0012,1.6385 4.0012,3.67377 l 0,14.09274 c 0,2.03527 -1.7845,3.67377 -4.0012,3.67377 l -121.284,0 c -2.2167,0 -4.0012,-1.6385 -4.0012,-3.67377 l 0,-14.09274 c 0,-2.03527 1.7845,-3.67377 4.0012,-3.67377 z"
       id="rect3791"
       sodipodi:nodetypes="ccccccccc" />
    <image
       y="582.72858"
       x="1081.2566"
       id="image3880"
       height="28"
       width="26"
       xlink:href="file:///home/jorge/BlenderCave_GUI/object_icon.png" />
    <text
       xml:space="preserve"
       style="font-size:15.04528332px;font-style:normal;font-weight:normal;line-height:125%;letter-spacing:0px;word-spacing:0px;fill:#000000;fill-opacity:1;stroke:none;font-family:Bitstream Vera Sans"
       x="1115.6605"
       y="601.40173"
       id="text3884"
       sodipodi:linespacing="125%"><tspan
         sodipodi:role="line"
         id="tspan3886"
         x="1115.6605"
         y="601.40173">left_screen</tspan></text>
    <text
       xml:space="preserve"
       style="font-size:12px;font-style:normal;font-weight:normal;line-height:125%;letter-spacing:0px;word-spacing:0px;fill:#000000;fill-opacity:1;stroke:none;font-family:Bitstream Vera Sans"
       x="1064.8031"
       y="628.79944"
       id="text3915"
       sodipodi:linespacing="125%"><tspan
         sodipodi:role="line"
         id="tspan3917"
         x="1064.8031"
         y="628.79944">start script:</tspan></text>
    <path
       sodipodi:nodetypes="ccccccccc"
       id="path3934"
       d="m 1142.9202,614.00845 91.284,0 c 2.2167,0 4.0012,1.6385 4.0012,3.67377 l 0,14.09274 c 0,2.03527 -1.7845,3.67377 -4.0012,3.67377 l -91.284,0 c -2.2167,0 -4.0012,-1.6385 -4.0012,-3.67377 l 0,-14.09274 c 0,-2.03527 1.7845,-3.67377 4.0012,-3.67377 z"
       style="fill:#e3dedb;fill-opacity:1;stroke:#000000;stroke-width:0.95850867;stroke-miterlimit:4;stroke-opacity:1;stroke-dashoffset:0" />
    <text
       sodipodi:linespacing="125%"
       id="text3936"
       y="629.40173"
       x="1144.6605"
       style="font-size:13px;font-style:normal;font-weight:normal;line-height:125%;letter-spacing:0px;word-spacing:0px;fill:#000000;fill-opacity:1;stroke:none;font-family:Bitstream Vera Sans"
       xml:space="preserve"><tspan
         y="629.40173"
         x="1144.6605"
         id="tspan3938"
         sodipodi:role="line">slave_start.py</tspan></text>
    <text
       sodipodi:linespacing="125%"
       id="text3940"
       y="654.79944"
       x="1064.8031"
       style="font-size:12px;font-style:normal;font-weight:normal;line-height:125%;letter-spacing:0px;word-spacing:0px;fill:#000000;fill-opacity:1;stroke:none;font-family:Bitstream Vera Sans"
       xml:space="preserve"><tspan
         y="654.79944"
         x="1064.8031"
         id="tspan3942"
         sodipodi:role="line">onReceive:</tspan></text>
    <path
       style="fill:#e3dedb;fill-opacity:1;stroke:#000000;stroke-width:0.95850867;stroke-miterlimit:4;stroke-opacity:1;stroke-dashoffset:0"
       d="m 1142.9202,640.00845 91.284,0 c 2.2167,0 4.0012,1.6385 4.0012,3.67377 l 0,14.09274 c 0,2.03527 -1.7845,3.67377 -4.0012,3.67377 l -91.284,0 c -2.2167,0 -4.0012,-1.6385 -4.0012,-3.67377 l 0,-14.09274 c 0,-2.03527 1.7845,-3.67377 4.0012,-3.67377 z"
       id="path3944"
       sodipodi:nodetypes="ccccccccc" />
    <text
       xml:space="preserve"
       style="font-size:13px;font-style:normal;font-weight:normal;line-height:125%;letter-spacing:0px;word-spacing:0px;fill:#000000;fill-opacity:1;stroke:none;font-family:Bitstream Vera Sans"
       x="1144.6605"
       y="655.40173"
       id="text3946"
       sodipodi:linespacing="125%"><tspan
         sodipodi:role="line"
         id="tspan3948"
         x="1144.6605"
         y="655.40173">slave_recv.py</tspan></text>
    <path
       sodipodi:nodetypes="ccccccccc"
       id="path3950"
       d="m 1065.295,682.73969 172.5892,0 c 5.54,0 10,4.46 10,10 l 0,95.8138 c 0,5.54 -4.46,10 -10,10 l -172.5892,0 c -5.54,0 -10,-4.46 -10,-10 l 0,-95.8138 c 0,-5.54 4.46,-10 10,-10 z"
       style="fill:#7c7c7c;fill-opacity:1;stroke:#000000;stroke-width:1;stroke-miterlimit:4;stroke-opacity:1;stroke-dashoffset:0" />
    <path
       transform="matrix(0.3518264,0,0,0.3518264,865.76777,529.68734)"
       d="m 583.2403,482.07954 -15.53234,-26.90279 31.06467,0 -15.53233,26.90279 z"
       inkscape:randomized="0"
       inkscape:rounded="0"
       inkscape:flatsided="true"
       sodipodi:arg2="2.6179939"
       sodipodi:arg1="1.5707963"
       sodipodi:r2="8.967598"
       sodipodi:r1="17.935196"
       sodipodi:cy="464.14435"
       sodipodi:cx="583.2403"
       sodipodi:sides="3"
       id="path3952"
       style="fill:#ffffff;fill-opacity:1;stroke:none"
       sodipodi:type="star" />
    <text
       sodipodi:linespacing="125%"
       id="text3954"
       y="699.38446"
       x="1084.3386"
       style="font-size:16px;font-style:normal;font-weight:normal;line-height:125%;letter-spacing:0px;word-spacing:0px;fill:#e3dedb;fill-opacity:1;stroke:none;font-family:Bitstream Vera Sans"
       xml:space="preserve"><tspan
         y="699.38446"
         x="1084.3386"
         id="tspan3956"
         sodipodi:role="line">screen 2</tspan></text>
    <path
       sodipodi:nodetypes="ccccccccc"
       id="path3958"
       d="m 1113.9202,710.00845 121.284,0 c 2.2167,0 4.0012,1.6385 4.0012,3.67377 l 0,14.09274 c 0,2.03527 -1.7845,3.67377 -4.0012,3.67377 l -121.284,0 c -2.2167,0 -4.0012,-1.6385 -4.0012,-3.67377 l 0,-14.09274 c 0,-2.03527 1.7845,-3.67377 4.0012,-3.67377 z"
       style="fill:#e3dedb;fill-opacity:1;stroke:#000000;stroke-width:0.95850867;stroke-miterlimit:4;stroke-opacity:1;stroke-dashoffset:0" />
    <image
       xlink:href="file:///home/jorge/BlenderCave_GUI/object_icon.png"
       width="26"
       height="28"
       id="image3960"
       x="1081.2566"
       y="706.72858" />
    <text
       sodipodi:linespacing="125%"
       id="text3962"
       y="725.40173"
       x="1115.6605"
       style="font-size:15.04528332px;font-style:normal;font-weight:normal;line-height:125%;letter-spacing:0px;word-spacing:0px;fill:#000000;fill-opacity:1;stroke:none;font-family:Bitstream Vera Sans"
       xml:space="preserve"><tspan
         y="725.40173"
         x="1115.6605"
         id="tspan3964"
         sodipodi:role="line">right_screen</tspan></text>
    <text
       sodipodi:linespacing="125%"
       id="text3966"
       y="752.79944"
       x="1064.8031"
       style="font-size:12px;font-style:normal;font-weight:normal;line-height:125%;letter-spacing:0px;word-spacing:0px;fill:#000000;fill-opacity:1;stroke:none;font-family:Bitstream Vera Sans"
       xml:space="preserve"><tspan
         y="752.79944"
         x="1064.8031"
         id="tspan3968"
         sodipodi:role="line">onStart:</tspan></text>
    <path
       style="fill:#e3dedb;fill-opacity:1;stroke:#000000;stroke-width:0.95850867;stroke-miterlimit:4;stroke-opacity:1;stroke-dashoffset:0"
       d="m 1142.9202,738.00845 91.284,0 c 2.2167,0 4.0012,1.6385 4.0012,3.67377 l 0,14.09274 c 0,2.03527 -1.7845,3.67377 -4.0012,3.67377 l -91.284,0 c -2.2167,0 -4.0012,-1.6385 -4.0012,-3.67377 l 0,-14.09274 c 0,-2.03527 1.7845,-3.67377 4.0012,-3.67377 z"
       id="path3970"
       sodipodi:nodetypes="ccccccccc" />
    <text
       xml:space="preserve"
       style="font-size:13px;font-style:normal;font-weight:normal;line-height:125%;letter-spacing:0px;word-spacing:0px;fill:#000000;fill-opacity:1;stroke:none;font-family:Bitstream Vera Sans"
       x="1144.6605"
       y="753.40173"
       id="text3972"
       sodipodi:linespacing="125%"><tspan
         sodipodi:role="line"
         id="tspan3974"
         x="1144.6605"
         y="753.40173">slave_start.py</tspan></text>
    <text
       xml:space="preserve"
       style="font-size:12px;font-style:normal;font-weight:normal;line-height:125%;letter-spacing:0px;word-spacing:0px;fill:#000000;fill-opacity:1;stroke:none;font-family:Bitstream Vera Sans"
       x="1064.8031"
       y="778.79944"
       id="text3976"
       sodipodi:linespacing="125%"><tspan
         sodipodi:role="line"
         id="tspan3978"
         x="1064.8031"
         y="778.79944">onReceive:</tspan></text>
    <path
       sodipodi:nodetypes="ccccccccc"
       id="path3980"
       d="m 1142.9202,764.00845 91.284,0 c 2.2167,0 4.0012,1.6385 4.0012,3.67377 l 0,14.09274 c 0,2.03527 -1.7845,3.67377 -4.0012,3.67377 l -91.284,0 c -2.2167,0 -4.0012,-1.6385 -4.0012,-3.67377 l 0,-14.09274 c 0,-2.03527 1.7845,-3.67377 4.0012,-3.67377 z"
       style="fill:#e3dedb;fill-opacity:1;stroke:#000000;stroke-width:0.95850867;stroke-miterlimit:4;stroke-opacity:1;stroke-dashoffset:0" />
    <text
       sodipodi:linespacing="125%"
       id="text3982"
       y="779.40173"
       x="1144.6605"
       style="font-size:13px;font-style:normal;font-weight:normal;line-height:125%;letter-spacing:0px;word-spacing:0px;fill:#000000;fill-opacity:1;stroke:none;font-family:Bitstream Vera Sans"
       xml:space="preserve"><tspan
         y="779.40173"
         x="1144.6605"
         id="tspan3984"
         sodipodi:role="line">slave_recv.py</tspan></text>
    <path
       style="fill:#7c7c7c;fill-opacity:1;stroke:#000000;stroke-width:1;stroke-miterlimit:4;stroke-opacity:1;stroke-dashoffset:0"
       d="m 1065.6795,474.03011 172.5892,0 c 5.54,0 10,4.46 10,10 l 0,59.8138 c 0,5.54 -4.46,10 -10,10 l -172.5892,0 c -5.54,0 -10,-4.46 -10,-10 l 0,-59.8138 c 0,-5.54 4.46,-10 10,-10 z"
       id="rect3762-9"
       sodipodi:nodetypes="ccccccccc" />
    <path
       sodipodi:type="star"
       style="fill:#ffffff;fill-opacity:1;stroke:none"
       id="path2942-7-9"
       sodipodi:sides="3"
       sodipodi:cx="583.2403"
       sodipodi:cy="464.14435"
       sodipodi:r1="17.935196"
       sodipodi:r2="8.967598"
       sodipodi:arg1="1.5707963"
       sodipodi:arg2="2.6179939"
       inkscape:flatsided="true"
       inkscape:rounded="0"
       inkscape:randomized="0"
       d="m 583.2403,482.07954 -15.53234,-26.90279 31.06467,0 -15.53233,26.90279 z"
       transform="matrix(0.3518264,0,0,0.3518264,866.15223,320.97776)" />
    <text
       xml:space="preserve"
       style="font-size:16px;font-style:normal;font-weight:normal;line-height:125%;letter-spacing:0px;word-spacing:0px;fill:#e3dedb;fill-opacity:1;stroke:none;font-family:Bitstream Vera Sans"
       x="1084.7231"
       y="490.6749"
       id="text3786-7"
       sodipodi:linespacing="125%"><tspan
         sodipodi:role="line"
         id="tspan3788-9"
         x="1084.7231"
         y="490.6749">Tracking</tspan></text>
    <path
       style="fill:#e3dedb;fill-opacity:1;stroke:#000000;stroke-width:0.95850867;stroke-miterlimit:4;stroke-opacity:1;stroke-dashoffset:0"
       d="m 1154.3047,499.29887 81.284,0 c 2.2167,0 4.0012,1.6385 4.0012,3.67377 l 0,14.09274 c 0,2.03527 -1.7845,3.67377 -4.0012,3.67377 l -81.284,0 c -2.2167,0 -4.0012,-1.6385 -4.0012,-3.67377 l 0,-14.09274 c 0,-2.03527 1.7845,-3.67377 4.0012,-3.67377 z"
       id="rect3791-8"
       sodipodi:nodetypes="ccccccccc" />
    <image
       y="496.01904"
       x="1121.6411"
       id="image3880-5"
       height="28"
       width="26"
       xlink:href="file:///home/jorge/BlenderCave_GUI/object_icon.png" />
    <text
       xml:space="preserve"
       style="font-size:15.04528332px;font-style:normal;font-weight:normal;line-height:125%;letter-spacing:0px;word-spacing:0px;fill:#000000;fill-opacity:1;stroke:none;font-family:Bitstream Vera Sans"
       x="1176.0449"
       y="514.69214"
       id="text3884-5"
       sodipodi:linespacing="125%"><tspan
         sodipodi:role="line"
         id="tspan3886-2"
         x="1176.0449"
         y="514.69214">Cage</tspan></text>
    <text
       sodipodi:linespacing="125%"
       id="text3940-9"
       y="541.08984"
       x="1065.1876"
       style="font-size:12px;font-style:normal;font-weight:normal;line-height:125%;letter-spacing:0px;word-spacing:0px;fill:#000000;fill-opacity:1;stroke:none;font-family:Bitstream Vera Sans"
       xml:space="preserve"><tspan
         y="541.08984"
         x="1065.1876"
         id="tspan3942-8"
         sodipodi:role="line">onUpdate:</tspan></text>
    <path
       style="fill:#e3dedb;fill-opacity:1;stroke:#000000;stroke-width:0.95850867;stroke-miterlimit:4;stroke-opacity:1;stroke-dashoffset:0"
       d="m 1143.3047,526.29887 91.284,0 c 2.2167,0 4.0012,1.6385 4.0012,3.67377 l 0,14.09274 c 0,2.03527 -1.7845,3.67377 -4.0012,3.67377 l -91.284,0 c -2.2167,0 -4.0012,-1.6385 -4.0012,-3.67377 l 0,-14.09274 c 0,-2.03527 1.7845,-3.67377 4.0012,-3.67377 z"
       id="path3944-6"
       sodipodi:nodetypes="ccccccccc" />
    <text
       xml:space="preserve"
       style="font-size:12px;font-style:normal;font-weight:normal;line-height:125%;letter-spacing:0px;word-spacing:0px;fill:#000000;fill-opacity:1;stroke:none;font-family:Bitstream Vera Sans"
       x="1142.0449"
       y="541.69214"
       id="text3946-1"
       sodipodi:linespacing="125%"><tspan
         sodipodi:role="line"
         id="tspan3948-6"
         x="1142.0449"
         y="541.69214">UpdateTrack.py</tspan></text>
    <text
       xml:space="preserve"
       style="font-size:12px;font-style:normal;font-weight:normal;line-height:125%;letter-spacing:0px;word-spacing:0px;fill:#000000;fill-opacity:1;stroke:none;font-family:Bitstream Vera Sans"
       x="1070.1876"
       y="513.75684"
       id="text4081"
       sodipodi:linespacing="125%"><tspan
         sodipodi:role="line"
         id="tspan4083"
         x="1070.1876"
         y="513.75684">Bounds:</tspan></text>
    <path
       style="fill:#7c7c7c;fill-opacity:1;stroke:#000000;stroke-width:1;stroke-miterlimit:4;stroke-opacity:1;stroke-dashoffset:0"
       d="m 1065.295,809.73969 172.5892,0 c 5.54,0 10,4.46 10,10 l 0,95.8138 c -106.4993,0 -92.5692,0 -192.5892,0 l 0,-95.8138 c 0,-5.54 4.46,-10 10,-10 z"
       id="path4085"
       sodipodi:nodetypes="ccccccc" />
    <path
       sodipodi:type="star"
       style="fill:#ffffff;fill-opacity:1;stroke:none"
       id="path4087"
       sodipodi:sides="3"
       sodipodi:cx="583.2403"
       sodipodi:cy="464.14435"
       sodipodi:r1="17.935196"
       sodipodi:r2="8.967598"
       sodipodi:arg1="1.5707963"
       sodipodi:arg2="2.6179939"
       inkscape:flatsided="true"
       inkscape:rounded="0"
       inkscape:randomized="0"
       d="m 583.2403,482.07954 -15.53234,-26.90279 31.06467,0 -15.53233,26.90279 z"
       transform="matrix(0.3518264,0,0,0.3518264,865.76777,656.68734)" />
    <text
       xml:space="preserve"
       style="font-size:16px;font-style:normal;font-weight:normal;line-height:125%;letter-spacing:0px;word-spacing:0px;fill:#e3dedb;fill-opacity:1;stroke:none;font-family:Bitstream Vera Sans"
       x="1084.3386"
       y="826.38446"
       id="text4089"
       sodipodi:linespacing="125%"><tspan
         sodipodi:role="line"
         id="tspan4091"
         x="1084.3386"
         y="826.38446">screen 3</tspan></text>
    <path
       style="fill:#e3dedb;fill-opacity:1;stroke:#000000;stroke-width:0.95850867;stroke-miterlimit:4;stroke-opacity:1;stroke-dashoffset:0"
       d="m 1113.9202,837.00845 121.284,0 c 2.2167,0 4.0012,1.6385 4.0012,3.67377 l 0,14.09274 c 0,2.03527 -1.7845,3.67377 -4.0012,3.67377 l -121.284,0 c -2.2167,0 -4.0012,-1.6385 -4.0012,-3.67377 l 0,-14.09274 c 0,-2.03527 1.7845,-3.67377 4.0012,-3.67377 z"
       id="path4093"
       sodipodi:nodetypes="ccccccccc" />
    <image
       y="833.72858"
       x="1081.2566"
       id="image4095"
       height="28"
       width="26"
       xlink:href="file:///home/jorge/BlenderCave_GUI/object_icon.png" />
    <text
       xml:space="preserve"
       style="font-size:15.04528332px;font-style:normal;font-weight:normal;line-height:125%;letter-spacing:0px;word-spacing:0px;fill:#000000;fill-opacity:1;stroke:none;font-family:Bitstream Vera Sans"
       x="1115.6605"
       y="852.40173"
       id="text4097"
       sodipodi:linespacing="125%"><tspan
         sodipodi:role="line"
         id="tspan4099"
         x="1115.6605"
         y="852.40173">bottom_screen</tspan></text>
    <text
       xml:space="preserve"
       style="font-size:12px;font-style:normal;font-weight:normal;line-height:125%;letter-spacing:0px;word-spacing:0px;fill:#000000;fill-opacity:1;stroke:none;font-family:Bitstream Vera Sans"
       x="1064.8031"
       y="879.79944"
       id="text4101"
       sodipodi:linespacing="125%"><tspan
         sodipodi:role="line"
         id="tspan4103"
         x="1064.8031"
         y="879.79944">onStart:</tspan></text>
    <path
       sodipodi:nodetypes="ccccccccc"
       id="path4105"
       d="m 1142.9202,865.00845 91.284,0 c 2.2167,0 4.0012,1.6385 4.0012,3.67377 l 0,14.09274 c 0,2.03527 -1.7845,3.67377 -4.0012,3.67377 l -91.284,0 c -2.2167,0 -4.0012,-1.6385 -4.0012,-3.67377 l 0,-14.09274 c 0,-2.03527 1.7845,-3.67377 4.0012,-3.67377 z"
       style="fill:#e3dedb;fill-opacity:1;stroke:#000000;stroke-width:0.95850867;stroke-miterlimit:4;stroke-opacity:1;stroke-dashoffset:0" />
    <text
       sodipodi:linespacing="125%"
       id="text4107"
       y="880.40173"
       x="1144.6605"
       style="font-size:13px;font-style:normal;font-weight:normal;line-height:125%;letter-spacing:0px;word-spacing:0px;fill:#000000;fill-opacity:1;stroke:none;font-family:Bitstream Vera Sans"
       xml:space="preserve"><tspan
         y="880.40173"
         x="1144.6605"
         id="tspan4109"
         sodipodi:role="line">slave_start.py</tspan></text>
    <text
       sodipodi:linespacing="125%"
       id="text4111"
       y="905.79944"
       x="1064.8031"
       style="font-size:12px;font-style:normal;font-weight:normal;line-height:125%;letter-spacing:0px;word-spacing:0px;fill:#000000;fill-opacity:1;stroke:none;font-family:Bitstream Vera Sans"
       xml:space="preserve"><tspan
         y="905.79944"
         x="1064.8031"
         id="tspan4113"
         sodipodi:role="line">onReceive:</tspan></text>
    <path
       style="fill:#e3dedb;fill-opacity:1;stroke:#000000;stroke-width:0.95850867;stroke-miterlimit:4;stroke-opacity:1;stroke-dashoffset:0"
       d="m 1142.9202,891.00845 91.284,0 c 2.2167,0 4.0012,1.6385 4.0012,3.67377 l 0,14.09274 c 0,2.03527 -1.7845,3.67377 -4.0012,3.67377 l -91.284,0 c -2.2167,0 -4.0012,-1.6385 -4.0012,-3.67377 l 0,-14.09274 c 0,-2.03527 1.7845,-3.67377 4.0012,-3.67377 z"
       id="path4115"
       sodipodi:nodetypes="ccccccccc" />
    <text
       xml:space="preserve"
       style="font-size:13px;font-style:normal;font-weight:normal;line-height:125%;letter-spacing:0px;word-spacing:0px;fill:#000000;fill-opacity:1;stroke:none;font-family:Bitstream Vera Sans"
       x="1144.6605"
       y="906.40173"
       id="text4117"
       sodipodi:linespacing="125%"><tspan
         sodipodi:role="line"
         id="tspan4119"
         x="1144.6605"
         y="906.40173">slave_recv.py</tspan></text>
    <path
       sodipodi:nodetypes="ccccccccc"
       id="path4131"
       d="m 1113.9202,348.00845 121.284,0 c 2.2167,0 4.0012,1.6385 4.0012,3.67377 l 0,14.09274 c 0,2.03527 -1.7845,3.67377 -4.0012,3.67377 l -121.284,0 c -2.2167,0 -4.0012,-1.6385 -4.0012,-3.67377 l 0,-14.09274 c 0,-2.03527 1.7845,-3.67377 4.0012,-3.67377 z"
       style="fill:#e3dedb;fill-opacity:1;stroke:#000000;stroke-width:0.95850867;stroke-miterlimit:4;stroke-opacity:1;stroke-dashoffset:0" />
    <image
       xlink:href="file:///home/jorge/BlenderCave_GUI/object_icon.png"
       width="26"
       height="28"
       id="image4133"
       x="1081.2566"
       y="344.72858" />
    <text
       sodipodi:linespacing="125%"
       id="text4135"
       y="363.40173"
       x="1115.6605"
       style="font-size:15.04528332px;font-style:normal;font-weight:normal;line-height:125%;letter-spacing:0px;word-spacing:0px;fill:#000000;fill-opacity:1;stroke:none;font-family:Bitstream Vera Sans"
       xml:space="preserve"><tspan
         y="363.40173"
         x="1115.6605"
         id="tspan4137"
         sodipodi:role="line">front_screen</tspan></text>
    <text
       sodipodi:linespacing="125%"
       id="text4161"
       y="399.79944"
       x="1055.8031"
       style="font-size:12px;font-style:normal;font-weight:normal;line-height:125%;letter-spacing:0px;word-spacing:0px;fill:#000000;fill-opacity:1;stroke:none;font-family:Bitstream Vera Sans"
       xml:space="preserve"><tspan
         y="399.79944"
         x="1055.8031"
         id="tspan4163"
         sodipodi:role="line">start script:</tspan></text>
    <path
       style="fill:#e3dedb;fill-opacity:1;stroke:#000000;stroke-width:0.95850867;stroke-miterlimit:4;stroke-opacity:1;stroke-dashoffset:0"
       d="m 1133.9202,385.00845 111.284,0 c 2.2167,0 4.0012,1.6385 4.0012,3.67377 l 0,14.09274 c 0,2.03527 -1.7845,3.67377 -4.0012,3.67377 l -111.284,0 c -2.2167,0 -4.0012,-1.6385 -4.0012,-3.67377 l 0,-14.09274 c 0,-2.03527 1.7845,-3.67377 4.0012,-3.67377 z"
       id="path4165"
       sodipodi:nodetypes="ccccccccc" />
    <text
       xml:space="preserve"
       style="font-size:13px;font-style:normal;font-weight:normal;line-height:125%;letter-spacing:0px;word-spacing:0px;fill:#000000;fill-opacity:1;stroke:none;font-family:Bitstream Vera Sans"
       x="1135.6605"
       y="400.40173"
       id="text4167"
       sodipodi:linespacing="125%"><tspan
         sodipodi:role="line"
         id="tspan4169"
         x="1135.6605"
         y="400.40173">master_start.py</tspan></text>
    <text
       xml:space="preserve"
       style="font-size:12px;font-style:normal;font-weight:normal;line-height:125%;letter-spacing:0px;word-spacing:0px;fill:#000000;fill-opacity:1;stroke:none;font-family:Bitstream Vera Sans"
       x="1055.8031"
       y="436.79944"
       id="text4171"
       sodipodi:linespacing="125%"><tspan
         sodipodi:role="line"
         id="tspan4173"
         x="1055.8031"
         y="436.79944">onSend:</tspan></text>
    <path
       sodipodi:nodetypes="ccccccccc"
       id="path4175"
       d="m 1133.9202,422.00845 111.284,0 c 2.2167,0 4.0012,1.6385 4.0012,3.67377 l 0,14.09274 c 0,2.03527 -1.7845,3.67377 -4.0012,3.67377 l -111.284,0 c -2.2167,0 -4.0012,-1.6385 -4.0012,-3.67377 l 0,-14.09274 c 0,-2.03527 1.7845,-3.67377 4.0012,-3.67377 z"
       style="fill:#e3dedb;fill-opacity:1;stroke:#000000;stroke-width:0.95850867;stroke-miterlimit:4;stroke-opacity:1;stroke-dashoffset:0" />
    <text
       sodipodi:linespacing="125%"
       id="text4177"
       y="437.40173"
       x="1135.6605"
       style="font-size:13px;font-style:normal;font-weight:normal;line-height:125%;letter-spacing:0px;word-spacing:0px;fill:#000000;fill-opacity:1;stroke:none;font-family:Bitstream Vera Sans"
       xml:space="preserve"><tspan
         y="437.40173"
         x="1135.6605"
         id="tspan4179"
         sodipodi:role="line">master_send.py</tspan></text>
  </g>
</svg>
